<svg aria-hidden="true" style="position:absolute;width:0;height:0" xmlns="http://www.w3.org/2000/svg" overflow="hidden">
    <defs>
        <symbol id="icon-cancel" viewBox="0 0 32 32">
            <path
                d="M16 29C8.82 29 3 23.18 3 16S8.82 3 16 3s13 5.82 13 13-5.82 13-13 13zm5.961-16.791a.626.626 0 000-.885l-1.328-1.327a.626.626 0 00-.885 0l-3.761 3.761-3.761-3.761a.626.626 0 00-.885 0l-1.328 1.327a.626.626 0 000 .885l3.762 3.762-3.762 3.76a.626.626 0 000 .885l1.328 1.328a.626.626 0 00.885 0l3.761-3.762 3.761 3.762a.626.626 0 00.885 0l1.328-1.328a.626.626 0 000-.885l-3.762-3.76 3.762-3.762z" />
        </symbol>
        <symbol id="icon-search" viewBox="0 0 24 24">
            <path
                d="M16.041 15.856a.995.995 0 00-.186.186A6.97 6.97 0 0111 18c-1.933 0-3.682-.782-4.95-2.05S4 12.933 4 11s.782-3.682 2.05-4.95S9.067 4 11 4s3.682.782 4.95 2.05S18 9.067 18 11a6.971 6.971 0 01-1.959 4.856zm5.666 4.437l-3.675-3.675A8.967 8.967 0 0020 11c0-2.485-1.008-4.736-2.636-6.364S13.485 2 11 2 6.264 3.008 4.636 4.636 2 8.515 2 11s1.008 4.736 2.636 6.364S8.515 20 11 20a8.967 8.967 0 005.618-1.968l3.675 3.675a.999.999 0 101.414-1.414z" />
        </symbol>
        <symbol id="icon-arrow_up" viewBox="0 0 24 24">
            <path d="M7.406 15.422L6 14.016l6-6 6 6-1.406 1.406L12 10.828z" />
        </symbol>
        <symbol id="icon-arrow_right" viewBox="0 0 24 24">
            <path d="M8.578 16.594L13.172 12 8.578 7.406 9.984 6l6 6-6 6z" />
        </symbol>
        <symbol id="icon-arrow_left" viewBox="0 0 24 24">
            <path d="M15.422 16.594L14.016 18l-6-6 6-6 1.406 1.406L10.828 12z" />
        </symbol>
        <symbol id="icon-arrow_down" viewBox="0 0 24 24">
            <path d="M7.406 8.578L12 13.172l4.594-4.594L18 9.984l-6 6-6-6z" />
        </symbol>
        <symbol id="icon-menu" viewBox="0 0 32 32">
            <path d="M2 6h28v6H2zm0 8h28v6H2zm0 8h28v6H2z" />
        </symbol>
        <symbol id="icon-facebook" viewBox="0 0 32 32">
            <path
                d="M29 0H3C1.35 0 0 1.35 0 3v26c0 1.65 1.35 3 3 3h13V18h-4v-4h4v-2c0-3.306 2.694-6 6-6h4v4h-4c-1.1 0-2 .9-2 2v2h6l-1 4h-5v14h9c1.65 0 3-1.35 3-3V3c0-1.65-1.35-3-3-3z" />
        </symbol>
        <symbol id="icon-youtube" viewBox="0 0 32 32">
            <path
                d="M31.681 9.6s-.313-2.206-1.275-3.175C29.187 5.15 27.825 5.144 27.2 5.069c-4.475-.325-11.194-.325-11.194-.325h-.012s-6.719 0-11.194.325c-.625.075-1.987.081-3.206 1.356C.631 7.394.325 9.6.325 9.6s-.319 2.588-.319 5.181v2.425c0 2.587.319 5.181.319 5.181s.313 2.206 1.269 3.175c1.219 1.275 2.819 1.231 3.531 1.369 2.563.244 10.881.319 10.881.319s6.725-.012 11.2-.331c.625-.075 1.988-.081 3.206-1.356.962-.969 1.275-3.175 1.275-3.175s.319-2.587.319-5.181v-2.425c-.006-2.588-.325-5.181-.325-5.181zM12.694 20.15v-8.994l8.644 4.513-8.644 4.481z" />
        </symbol>
    </defs>
</svg>